<svg id="svg" version="1.1" xmlns="http://www.w3.org/2000/svg" xmlns:xlink="http://www.w3.org/1999/xlink" width="400" height="400" viewBox="0, 0, 400,400"><g id="svgg"><path id="path0" d="M103.467 181.067 C 103.320 181.213,103.200 193.273,103.200 207.867 L 103.200 234.400 200.000 234.400 L 296.800 234.400 296.800 207.600 L 296.800 180.800 200.267 180.800 C 147.173 180.800,103.613 180.920,103.467 181.067 " stroke="none" fill="#e23b7b" fill-rule="evenodd"></path><path id="path1" d="M103.697 87.932 C 103.300 88.184,103.216 93.751,103.297 114.425 L 103.400 140.600 200.100 140.701 L 296.800 140.802 296.800 114.201 L 296.800 87.600 200.500 87.606 C 147.535 87.609,103.974 87.756,103.697 87.932 M103.297 298.100 L 103.400 324.200 200.100 324.301 L 296.800 324.402 296.800 298.201 L 296.800 272.000 199.997 272.000 L 103.194 272.000 103.297 298.100 " stroke="none" fill="#fbfbfb" fill-rule="evenodd"></path><path id="path2" d="M0.000 200.000 L 0.000 400.000 200.000 400.000 L 400.000 400.000 400.000 200.000 L 400.000 0.000 200.000 0.000 L 0.000 0.000 0.000 200.000 M297.000 114.400 L 297.000 141.400 200.000 141.400 L 103.000 141.400 102.896 114.800 C 102.839 100.170,102.879 87.975,102.984 87.699 C 103.137 87.300,122.768 87.219,200.088 87.299 L 297.000 87.400 297.000 114.400 M296.800 207.600 L 296.800 234.800 200.000 234.800 L 103.200 234.800 103.200 207.867 C 103.200 193.053,103.320 180.813,103.467 180.667 C 103.613 180.520,147.173 180.400,200.267 180.400 L 296.800 180.400 296.800 207.600 M296.703 270.986 C 297.101 271.137,297.184 276.771,297.103 298.089 L 297.000 325.000 200.000 325.000 L 103.000 325.000 102.897 298.331 C 102.813 276.585,102.892 271.565,103.326 271.131 C 103.847 270.610,295.337 270.466,296.703 270.986 " stroke="none" fill="#0c0474" fill-rule="evenodd"></path><path id="path3" d="M103.200 140.900 C 103.200 141.065,146.805 141.156,200.100 141.102 C 253.395 141.048,281.250 140.959,262.000 140.902 C 168.545 140.630,103.200 140.629,103.200 140.900 M103.200 271.600 C 103.200 271.866,135.733 272.000,200.000 272.000 C 264.267 272.000,296.800 271.866,296.800 271.600 C 296.800 271.334,264.267 271.200,200.000 271.200 C 135.733 271.200,103.200 271.334,103.200 271.600 M103.200 324.500 C 103.200 324.665,146.805 324.756,200.100 324.702 C 253.395 324.648,281.250 324.559,262.000 324.502 C 168.545 324.230,103.200 324.229,103.200 324.500 " stroke="none" fill="#c4c0dc" fill-rule="evenodd"></path><path id="path4" d="M102.984 87.699 C 102.879 87.975,102.839 100.170,102.896 114.800 L 103.000 141.400 200.000 141.400 L 297.000 141.400 297.000 114.400 L 297.000 87.400 200.088 87.299 C 122.768 87.219,103.137 87.300,102.984 87.699 M296.800 114.400 L 296.800 141.200 200.000 141.200 L 103.200 141.200 103.200 114.400 L 103.200 87.600 200.000 87.600 L 296.800 87.600 296.800 114.400 M103.462 180.700 C 103.294 180.971,168.546 180.970,262.000 180.698 C 281.250 180.641,253.496 180.552,200.324 180.498 C 147.152 180.444,103.564 180.535,103.462 180.700 M151.500 234.700 C 178.175 234.757,221.825 234.757,248.500 234.700 C 275.175 234.643,253.350 234.597,200.000 234.597 C 146.650 234.597,124.825 234.643,151.500 234.700 M103.462 270.894 C 103.208 271.056,146.605 271.191,199.900 271.194 L 296.800 271.200 296.800 298.000 L 296.800 324.800 200.003 324.800 L 103.206 324.800 103.099 298.100 L 102.991 271.400 102.996 298.200 L 103.000 325.000 200.000 325.000 L 297.000 325.000 297.103 298.089 C 297.184 276.771,297.101 271.137,296.703 270.986 C 295.869 270.668,103.960 270.577,103.462 270.894 " stroke="none" fill="#544c9c" fill-rule="evenodd"></path></g></svg>