<svg id="Logo" xmlns="http://www.w3.org/2000/svg" viewBox="0 0 105.79 150"><defs><style>.cls-1{fill:#f0659b;}.cls-2{fill:#fff;}.cls-3{fill:#f0699e;}.cls-4{fill:#a4ddec;}.cls-5{fill:#f0669b;}.cls-6{fill:#351327;}.cls-7{fill:#34132a;}</style></defs><path class="cls-1" d="M88.48,134.08c0-3.87-.12-7.74,0-11.61.27-7.58.64-15.17,1-22.75.17-3.13.08-2.58,3-2.62a31,31,0,0,1,4.62,0c5.45.69,10.93.19,16.39.35.79,0,1,.37.91,1-.21,2.55-.41,5.1-.62,7.65-.23,2.73-.42,5.47-.7,8.19-.26,2.54-.64,5.06-.93,7.6-.18,1.61-.2,3.24-.43,4.84-.61,4.23-3.21,7.13-7.14,9.16a27.84,27.84,0,0,1-7.29,2.16,37.84,37.84,0,0,1-8,.47c-.85,0-1.15-.29-1.11-1.08.06-1.12,0-2.25,0-3.38Z" transform="translate(-21.58 6.08)"/><path class="cls-1" d="M74.79,97H87c1.15,0,1.31.21,1.27,1.38-.25,6.82-.48,13.64-.75,20.45a107.91,107.91,0,0,1-.68,11.82c-.36,2.33-.37,4.64-.55,7,0,.65-.31.91-1,.91h-21c-.93,0-1.13-.21-1.17-1.18-.06-1.66-.07-3.31-.19-5s-.44-3.32-.52-5c-.14-3.17-.16-6.35-.26-9.52-.08-2.73-.21-5.46-.33-8.19-.15-3.78-.32-7.56-.47-11.34,0-1.09.17-1.32,1.27-1.32,4.07,0,8.14,0,12.2,0Z" transform="translate(-21.58 6.08)"/><path class="cls-1" d="M46.2,96.52H57.51c1,0,1.26.23,1.29,1.06.21,5.75.4,11.51.64,17.26.23,5.16.55,10.31.77,15.47.07,1.71-.11,3.43-.09,5.15,0,.93.2,1.86.3,2.79.07.63-.15.94-.84.93-3.65-.06-7.33.31-10.93-.54a17.28,17.28,0,0,1-6.3-2.78,13.13,13.13,0,0,1-4.15-4.31,15.08,15.08,0,0,1-2.13-6c-.25-3.48-.62-7-.92-10.42-.26-3.14-.48-6.28-.72-9.42-.2-2.54-.4-5.09-.59-7.63-.1-1.45,0-1.53,1.38-1.53h11Z" transform="translate(-21.58 6.08)"/><path class="cls-2" d="M98.06,90.84c-5.13-.15-10.28.33-15.4-.34a28.55,28.55,0,0,0-4.34,0c-2.25,0-2.58-.33-2.71,1.31H33.75c-1.3,0-1.36.08-1.27,1.41l.54,7c.22,2.88.43,5.77.67,8.65.27,3.19.61,6.37.84,9.57a13.89,13.89,0,0,0,2,5.52,12.07,12.07,0,0,0,3.81,3.95,16,16,0,0,0,5.79,2.56,33.57,33.57,0,0,0,8.13.49H74.77a1.69,1.69,0,0,0,.6.09,35.37,35.37,0,0,0,7.48-.46,25.62,25.62,0,0,0,6.84-2.12c3.69-2,6.13-4.83,6.7-9,.22-1.57.24-3.17.41-4.74.27-2.48.63-5,.87-7.43.27-2.67.44-5.35.65-8,.2-2.49.39-5,.59-7.48C99,91.21,98.79,90.86,98.06,90.84Z" transform="translate(-21.58 6.08)"/><ellipse class="cls-3" cx="94.03" cy="97.75" rx="3.67" ry="1.9"/><path class="cls-3" d="M115.79,92.31H37c-1.93,0-3.86,0-5.78-.13a9.09,9.09,0,0,1-2-.45,1.77,1.77,0,0,1-1.33-1.88,44.11,44.11,0,0,1,.1-6,35.63,35.63,0,0,1,1.6-5.93A30.1,30.1,0,0,1,34,69.55,70.51,70.51,0,0,1,40,62.35a49.11,49.11,0,0,1,10.08-8,39.17,39.17,0,0,1,9.41-4.33,15.94,15.94,0,0,1,1.85-.6,1.09,1.09,0,0,1,.94.38A7.83,7.83,0,0,0,67,53.63a23.07,23.07,0,0,0,10.53,1.15,21.65,21.65,0,0,0,5.87-1.49,10,10,0,0,0,3.54-3A1.14,1.14,0,0,1,88.52,50c1.21.54,2.48.93,3.69,1.47,1.61.72,3.21,1.48,4.77,2.31a51.23,51.23,0,0,1,9.7,6.89,44.67,44.67,0,0,1,7.85,8.85,41.59,41.59,0,0,1,4.36,8.5,31.19,31.19,0,0,1,1.87,11.3c0,1.91-.62,2.37-2.63,2.79a11.41,11.41,0,0,1-2.34,0ZM65.69,75.54c.24.79.42,1.6.73,2.35a5.37,5.37,0,0,0,6.35,2.89,16,16,0,0,0,3-1.41c2.37-1.5,4.65-3.15,7-4.61a5.5,5.5,0,0,0,1.57-7.62,5.28,5.28,0,0,0-7.06-2c-1.93,1.07-3.8,2.26-5.63,3.49a41,41,0,0,0-4.08,3.11A5.66,5.66,0,0,0,65.69,75.54Zm33.5,10.7a3.67,3.67,0,0,0,2.8-1A10.89,10.89,0,0,0,105,81c.93-2,1.68-4.1,2.76-6a6.06,6.06,0,0,0-2-8.51,4,4,0,0,0-3-.69A6.66,6.66,0,0,0,97.41,70c-.92,2.29-1.91,4.56-2.87,6.83a17.56,17.56,0,0,0-1.05,2.51A5.66,5.66,0,0,0,99.19,86.24ZM55.38,88.8a6,6,0,0,0,3.56-1,9,9,0,0,0,1.62-2,4.54,4.54,0,0,0,.59-3.8,8.42,8.42,0,0,0-2.26-3.77c-2-2.05-4-4-6-6a5.17,5.17,0,0,0-5.22-1.62c-2,.52-3.59,1.52-4.18,3.55A5.57,5.57,0,0,0,44.92,80c2.25,2.25,4.42,4.56,6.6,6.86A5.86,5.86,0,0,0,55.38,88.8Z" transform="translate(-21.58 6.08)"/><path class="cls-4" d="M105.52,73.56a42.68,42.68,0,0,0-3.72-8.11A41.57,41.57,0,0,0,95.1,57a44,44,0,0,0-8.28-6.57q-2-1.19-4.07-2.2c-1-.52-2.11-.89-3.15-1.4a.89.89,0,0,0-1.33.26,8.93,8.93,0,0,1-3,2.85,16.76,16.76,0,0,1-5,1.43,16.59,16.59,0,0,1-3,.15,1.31,1.31,0,0,0,.29-.79c0-1.42-2.6-2.56-5.81-2.56a11.42,11.42,0,0,0-3.19.42,6.33,6.33,0,0,1-1.35-1.94.89.89,0,0,0-.8-.36,13.59,13.59,0,0,0-1.58.57,31.78,31.78,0,0,0-8,4.13,43.21,43.21,0,0,0-8.6,7.59,65.09,65.09,0,0,0-5.07,6.87,30,30,0,0,0-3.79,8A38.09,38.09,0,0,0,28,79.1a47.18,47.18,0,0,0-.09,5.71A1.68,1.68,0,0,0,29,86.6a7.18,7.18,0,0,0,1.73.43c1.65.09,3.29.13,4.94.13H101c.52,0,1.06-.06,1.59-.07h.29v0a8.89,8.89,0,0,0,2,0c1.72-.4,2.25-.84,2.25-2.66A33,33,0,0,0,105.52,73.56Z" transform="translate(-21.58 6.08)"/><path class="cls-5" d="M67.54,34.07c.27-1.56.49-3.12.83-4.67.25-1.15.63-1.2,1.66-.59a57.49,57.49,0,0,0,6.31,3.52,8.79,8.79,0,0,1,4.83,5,19.93,19.93,0,0,1,1.37,6.4,2.89,2.89,0,0,1-.23.92,4.84,4.84,0,0,1-1-.27c-2.93-1.5-5.84-3-8.76-4.52-1.22-.64-2.42-1.3-3.63-2a2.14,2.14,0,0,1-1.2-1.93c0-.61,0-1.22,0-1.83Z" transform="translate(-21.58 6.08)"/><path class="cls-6" d="M126.26,81.88a74.53,74.53,0,0,0-3.31-9,40.53,40.53,0,0,0-5.5-9.15c-1.26-1.63-2.67-3.13-4-4.71a1.92,1.92,0,0,1-.19-2.51,30.49,30.49,0,0,0,1.75-3,24.35,24.35,0,0,0,1.85-9.4,24.91,24.91,0,0,0-1.35-9,15.34,15.34,0,0,0-3.2-5.49,5,5,0,0,0-3.41-1.51,12.32,12.32,0,0,0-5.46,1.15,25.28,25.28,0,0,0-6,3.53,39,39,0,0,0-3.2,2.83,19.76,19.76,0,0,0-4.45,7.1c-.19.5-.53.94-1.16.84s-.75-.65-.84-1.18a3.55,3.55,0,0,1,0-.46,23.67,23.67,0,0,0-1.8-7.57,7.93,7.93,0,0,1-.62-4.1,17.86,17.86,0,0,0-2.18-10.77A11,11,0,0,1,82,16.07c-.6-3.54-1-7.12-1.62-10.65-.51-2.81-1.25-5.58-1.9-8.37A3.84,3.84,0,0,0,74.6-6.08a4.13,4.13,0,0,0-3.8,3.35c-.27,1.46-.54,2.92-.88,4.36s-.84,2.58-1,3.9c-.29,1.8-.32,3.63-.57,5.44a21.83,21.83,0,0,1-.75,3.25c-.34,1.19-.91,2.34-1.13,3.55-.32,1.84-.39,3.72-.64,5.57a29.49,29.49,0,0,1-.83,4.5c-.55,1.87-1.31,3.67-1.19,5.68a12.63,12.63,0,0,1-.89,5.66c-.43,1-.51,2.23-.88,3.31a2.13,2.13,0,0,1-1,1.14c-.59.26-1-.24-1.26-.77-.19-.37-.34-.76-.53-1.13-2.79-5.67-6.86-10-12.81-12.43a14.61,14.61,0,0,0-5.92-1.24,4.4,4.4,0,0,0-3.39,1.81,20.45,20.45,0,0,0-4.18,9.8,18.89,18.89,0,0,0,.54,10.11c.7,1.87,1.46,3.72,2.32,5.52a2.46,2.46,0,0,1-.08,2.83c-.42.56-.82,1.14-1.24,1.7-1.23,1.61-2.59,3.15-3.66,4.86-2,3.22-4,6.47-5.72,9.83a37,37,0,0,0-2.76,7.18,25.06,25.06,0,0,0-.71,6.41,11.81,11.81,0,0,0,1,4.69,7.81,7.81,0,0,0,5.17,4.32,2.32,2.32,0,0,1,1.84,1.6,13,13,0,0,1,.59,2.58c.27,4.08.39,8.18.72,12.25.4,5,.95,9.9,1.43,14.85a11.93,11.93,0,0,0,2,5.67,17.64,17.64,0,0,0,3.69,4,18.93,18.93,0,0,0,6,3.24A54.87,54.87,0,0,0,51.46,143c2.09.36,4.23.55,6.35.7s4,.15,6,.18c3.07,0,6.15.11,9.22,0s6.19-.23,9.28-.42a81.51,81.51,0,0,1,12.5-.09,23.77,23.77,0,0,0,8.1-.86,11.61,11.61,0,0,0,3-1.17,19.7,19.7,0,0,0,8.49-9.18,37.44,37.44,0,0,0,2.9-11.22c.52-4.11.76-8.25,1.06-12.38.22-3,.35-6,.51-9a2.45,2.45,0,0,1,2-2.32,8.75,8.75,0,0,0,6.14-6.85C127.78,87.52,127,84.64,126.26,81.88Zm-30.89-37a17.62,17.62,0,0,1,1.42-2.93,20,20,0,0,1,4-4.11,21.15,21.15,0,0,1,4.62-2.68,18.05,18.05,0,0,1,2.18-.83.91.91,0,0,1,.76.36,15.08,15.08,0,0,1,2.14,5.86c.24,1.46.35,2.94.52,4.41a14.45,14.45,0,0,1-1.71,6.84c-.82,1.53-1.18,1.59-2.52.54a42.29,42.29,0,0,0-8.32-5.16l-2.66-1.28A.73.73,0,0,1,95.37,44.85ZM74,13.08c.2-1.65.33-3.31.5-5a3.51,3.51,0,0,1,.16-.57,17.89,17.89,0,0,1,.52,2.07c.28,1.77.51,3.55.73,5.32a1.89,1.89,0,0,1-.16.63c-.18-.07-.38-.12-.56-.21A2,2,0,0,1,74,13.08Zm-1.68,5.29a16.48,16.48,0,0,1,1.59.92c1.14.83,2.29,1.67,3.36,2.58a5.79,5.79,0,0,1,1.91,4.07c.09,1,.13,2,.14,2.95,0,.7-.26.86-.87.52-1.46-.83-2.91-1.71-4.35-2.58a3,3,0,0,0-.33-.21c-1.76-.63-2.27-2-2.29-3.73A11.34,11.34,0,0,1,72.29,18.37ZM69.38,35.21a1,1,0,0,1,0-.29.25.25,0,0,1,0-.08,1.79,1.79,0,0,1,0-.23h0c.23-1.33.41-2.67.68-4,.21-1,.53-1,1.37-.5a45.62,45.62,0,0,0,5.19,3,7.4,7.4,0,0,1,4,4.23,17.9,17.9,0,0,1,1.13,5.45,2.87,2.87,0,0,1-.2.79,4.22,4.22,0,0,1-.79-.23c-2.4-1.28-4.8-2.56-7.19-3.86-1-.54-2-1.11-3-1.66a1.77,1.77,0,0,1-.92-1.15,1.14,1.14,0,0,1-.11-.4A2.13,2.13,0,0,1,69.38,35.21Zm-1.31,6.72c.19-.55.54-.47.92-.27.81.42,1.6.87,2.4,1.3l7,3.8c.58.32,1.14.69,1.7,1l0,.3a12,12,0,0,1-1.62.41,25.77,25.77,0,0,1-7.39,0,9.48,9.48,0,0,1-2.68-1,1.91,1.91,0,0,1-.78-1.24A8.88,8.88,0,0,1,68.07,41.93ZM38.51,43.17a37.53,37.53,0,0,1,1-5.56A18.55,18.55,0,0,1,41,34.29c.11-.22.39-.35.56-.49.7.26,1.3.42,1.86.69A23.66,23.66,0,0,1,51.91,41a24.75,24.75,0,0,1,2.1,3.7c.23.42,0,.66-.42.84-1.06.49-2.14.94-3.16,1.51-2.22,1.24-4.41,2.53-6.59,3.83a22.08,22.08,0,0,0-2.11,1.47c-.5.38-.82.26-1.14-.23A13.4,13.4,0,0,1,38.51,43.17Zm20.41,94.39c-3.35-.06-6.73.29-10-.49a16,16,0,0,1-5.79-2.56,12.07,12.07,0,0,1-3.81-3.95,13.89,13.89,0,0,1-2-5.52c-.23-3.2-.57-6.38-.84-9.57-.24-2.88-.45-5.76-.67-8.65-.18-2.33-.37-4.67-.54-7-.09-1.33,0-1.4,1.27-1.4H57c.91,0,1.16.21,1.19,1,.19,5.28.36,10.57.59,15.85.21,4.74.51,9.47.7,14.2.07,1.58-.09,3.16-.07,4.74a25,25,0,0,0,.27,2.56C59.76,137.29,59.56,137.57,58.92,137.56ZM87.67,99.71c-.24,6.43-.45,12.86-.71,19.29a100.67,100.67,0,0,1-.65,11.15c-.34,2.2-.36,4.38-.52,6.56-.05.62-.31.87-.93.87-6.7,0-13.4,0-20.1,0-.89,0-1.08-.2-1.12-1.11-.06-1.57-.07-3.13-.18-4.69s-.43-3.14-.5-4.71c-.13-3-.15-6-.24-9-.09-2.57-.21-5.15-.32-7.72L62,99.65c0-1,.16-1.24,1.21-1.25,3.89,0,7.77,0,11.65,0H86.47C87.56,98.41,87.71,98.6,87.67,99.71Zm25.25,0q-.27,3.63-.55,7.24c-.19,2.59-.36,5.18-.61,7.77-.22,2.4-.56,4.79-.82,7.19-.15,1.53-.17,3.07-.37,4.59-.54,4-2.83,6.75-6.28,8.67a23.3,23.3,0,0,1-6.41,2.05,31.54,31.54,0,0,1-7,.45c-.75,0-1-.28-1-1s0-1.53,0-2.3c-.07-1,.11-2,.09-3a1.23,1.23,0,0,1,.06-.39c0-2.83-.06-5.66,0-8.5.23-7.18.56-14.36.92-21.54.15-3,.07-2.44,2.61-2.49,1.17,0,2.37-.12,3.53,0a1.13,1.13,0,0,1,.26,0l1,.12c.88,0,1.76,0,2.65.08a81.78,81.78,0,0,1,8.86.16q1.09,0,2.19,0C112.81,98.79,113,99.12,112.92,99.7Zm5.21-7.57a4.54,4.54,0,0,1-1.11.07h-.46a3.89,3.89,0,0,1-1,.11H37c-1.93,0-3.86,0-5.78-.13a9.09,9.09,0,0,1-2-.45,1.77,1.77,0,0,1-1.33-1.88,44.11,44.11,0,0,1,.1-6,35.63,35.63,0,0,1,1.6-5.93A30.1,30.1,0,0,1,34,69.55,70.51,70.51,0,0,1,40,62.35a49.11,49.11,0,0,1,10.08-8,39.17,39.17,0,0,1,9.41-4.33,15.94,15.94,0,0,1,1.85-.6,1.09,1.09,0,0,1,.94.38A7.83,7.83,0,0,0,67,53.63a23.07,23.07,0,0,0,10.53,1.15,21.65,21.65,0,0,0,5.87-1.49,10,10,0,0,0,3.54-3A1.14,1.14,0,0,1,88.52,50c1.21.54,2.48.93,3.69,1.47,1.61.72,3.21,1.48,4.77,2.31a51.23,51.23,0,0,1,9.7,6.89,44.67,44.67,0,0,1,7.85,8.85,41.59,41.59,0,0,1,4.36,8.5,31.19,31.19,0,0,1,1.87,11.3C120.76,91.25,120.14,91.71,118.13,92.13Z" transform="translate(-21.58 6.08)"/><path class="cls-5" d="M111,44.93a14.45,14.45,0,0,1-1.71,6.84c-.82,1.53-1.18,1.59-2.52.54a42.29,42.29,0,0,0-8.32-5.16l-2.66-1.28a.73.73,0,0,1-.44-1,17.62,17.62,0,0,1,1.42-2.93,20,20,0,0,1,4-4.11,21.15,21.15,0,0,1,4.62-2.68,18.05,18.05,0,0,1,2.18-.83.91.91,0,0,1,.76.36,15.08,15.08,0,0,1,2.14,5.86C110.74,42,110.85,43.46,111,44.93Z" transform="translate(-21.58 6.08)"/><path class="cls-5" d="M41.59,33.8c.7.26,1.3.42,1.86.69A23.66,23.66,0,0,1,51.91,41a24.75,24.75,0,0,1,2.1,3.7c.23.42,0,.66-.42.84-1.06.49-2.14.94-3.16,1.51-2.22,1.24-4.41,2.53-6.59,3.83a22.08,22.08,0,0,0-2.11,1.47c-.5.38-.82.26-1.14-.23a13.4,13.4,0,0,1-2.08-8.94,37.53,37.53,0,0,1,1-5.56A18.55,18.55,0,0,1,41,34.29C41.14,34.07,41.42,33.94,41.59,33.8Z" transform="translate(-21.58 6.08)"/><path class="cls-5" d="M72.29,18.37a16.48,16.48,0,0,1,1.59.92c1.14.83,2.29,1.67,3.36,2.58a5.79,5.79,0,0,1,1.91,4.07c.09,1,.13,2,.14,2.95,0,.7-.26.86-.87.52-1.46-.83-2.91-1.71-4.35-2.58a3,3,0,0,0-.33-.21c-1.76-.63-2.27-2-2.29-3.73A11.34,11.34,0,0,1,72.29,18.37Z" transform="translate(-21.58 6.08)"/><path class="cls-5" d="M80.11,48.09a12,12,0,0,1-1.62.41,25.77,25.77,0,0,1-7.39,0,9.48,9.48,0,0,1-2.68-1,1.91,1.91,0,0,1-.78-1.24,8.88,8.88,0,0,1,.43-4.3c.19-.55.54-.47.92-.27.81.42,1.6.87,2.4,1.3l7,3.8c.58.32,1.14.69,1.7,1Z" transform="translate(-21.58 6.08)"/><path class="cls-5" d="M74.63,7.54a20.2,20.2,0,0,1,.52,2.07c.28,1.77.51,3.55.73,5.32a1.89,1.89,0,0,1-.16.63c-.18-.07-.38-.12-.56-.21A2,2,0,0,1,74,13.08c.2-1.65.33-3.31.5-5A3.51,3.51,0,0,1,74.63,7.54Z" transform="translate(-21.58 6.08)"/><path class="cls-7" d="M84.34,67.14a5.28,5.28,0,0,0-7.06-2c-1.93,1.07-3.8,2.26-5.63,3.49a41,41,0,0,0-4.08,3.11A5.64,5.64,0,0,0,65.7,75.4v0a.78.78,0,0,1,0,.22c.23.74.41,1.51.7,2.22a5.37,5.37,0,0,0,6.35,2.89,16,16,0,0,0,3-1.41c2.37-1.5,4.65-3.15,7-4.61A5.5,5.5,0,0,0,84.34,67.14Zm-3.53,4.32c-1.34.92-2.73,1.77-4.1,2.65s-2.77,1.82-4.18,2.69a7,7,0,0,1-1.13.45A1.75,1.75,0,0,1,69.77,76a1.59,1.59,0,0,1,.47-1.77A7.2,7.2,0,0,1,71.7,73.1c1.58-1,3.18-2,4.78-3,.88-.55,1.78-1.07,2.68-1.58a1.48,1.48,0,0,1,2,.66A1.77,1.77,0,0,1,80.81,71.46Z" transform="translate(-21.58 6.08)"/><path class="cls-7" d="M99.19,86.24a5.66,5.66,0,0,1-5.7-6.91,17.56,17.56,0,0,1,1.05-2.51c1-2.27,1.95-4.54,2.87-6.83a6.66,6.66,0,0,1,5.3-4.23,4,4,0,0,1,3,.69,6.06,6.06,0,0,1,2,8.51c-1.08,1.91-1.83,4-2.76,6a10.89,10.89,0,0,1-3,4.24A3.67,3.67,0,0,1,99.19,86.24Zm-2.27-6.06c0,1.43.54,2.24,1.48,2.48a2.13,2.13,0,0,0,2.45-1.21c.41-.87.79-1.75,1.17-2.63.87-2,1.72-4.12,2.62-6.15a2.16,2.16,0,0,0-.83-3,2.11,2.11,0,0,0-3,1.13c-1,2.19-1.92,4.38-2.85,6.57C97.57,78.43,97.19,79.48,96.92,80.18Z" transform="translate(-21.58 6.08)"/><path class="cls-7" d="M55.38,88.8a5.86,5.86,0,0,1-3.86-1.94c-2.18-2.3-4.35-4.61-6.6-6.86a5.57,5.57,0,0,1-1.47-5.88c.59-2,2.19-3,4.18-3.55a5.17,5.17,0,0,1,5.22,1.62c2,2,4.08,3.94,6,6A8.42,8.42,0,0,1,61.15,82a4.54,4.54,0,0,1-.59,3.8,9,9,0,0,1-1.62,2A6,6,0,0,1,55.38,88.8Zm2.56-5.94a3.2,3.2,0,0,0-.39-.86c-.87-1-1.74-1.93-2.66-2.85-1.63-1.61-3.24-3.23-5-4.74a1.85,1.85,0,0,0-2.78.21,2.09,2.09,0,0,0,.12,2.77c.38.43.77.85,1.17,1.25,1.89,1.91,3.77,3.81,5.69,5.69a1.94,1.94,0,0,0,2.27.55A2.85,2.85,0,0,0,57.94,82.86Z" transform="translate(-21.58 6.08)"/><path class="cls-5" d="M71.4,77.25A1.75,1.75,0,0,1,69.77,76a1.59,1.59,0,0,1,.47-1.77A7.2,7.2,0,0,1,71.7,73.1c1.58-1,3.18-2,4.78-3,.88-.55,1.78-1.07,2.68-1.58a1.48,1.48,0,0,1,2,.66,1.77,1.77,0,0,1-.35,2.33c-1.34.92-2.73,1.77-4.1,2.65s-2.77,1.82-4.18,2.69A7,7,0,0,1,71.4,77.25Z" transform="translate(-21.58 6.08)"/><path class="cls-2" d="M96.92,80.18c.27-.7.65-1.75,1.08-2.77.93-2.19,1.89-4.38,2.85-6.57a2.11,2.11,0,0,1,3-1.13,2.16,2.16,0,0,1,.83,3c-.9,2-1.75,4.1-2.62,6.15-.38.88-.76,1.76-1.17,2.63a2.13,2.13,0,0,1-2.45,1.21C97.46,82.42,96.88,81.61,96.92,80.18Z" transform="translate(-21.58 6.08)"/><path class="cls-2" d="M57.94,82.86a2.85,2.85,0,0,1-1.54,2,1.94,1.94,0,0,1-2.27-.55c-1.92-1.88-3.8-3.78-5.69-5.69-.4-.4-.79-.82-1.17-1.25a2.09,2.09,0,0,1-.12-2.77,1.85,1.85,0,0,1,2.78-.21c1.72,1.51,3.33,3.13,5,4.74.92.92,1.79,1.88,2.66,2.85A3.2,3.2,0,0,1,57.94,82.86Z" transform="translate(-21.58 6.08)"/><path class="cls-5" d="M49.15,59.29a2.94,2.94,0,0,0-.88-.63,2.76,2.76,0,0,0-.77-.11h0a1.09,1.09,0,0,1-.26,0,2.73,2.73,0,0,0-.41,0,.77.77,0,0,1-.26.07h0a.76.76,0,0,1-.21.08L46,58.9l-.41.23-.05,0a2.85,2.85,0,0,1-.33.25,9.48,9.48,0,0,1-.85.55l-.11.1-.11.11-.16.13-.14.14a.76.76,0,0,1-.3.26l-.09,0c-1,.83-1.88,1.71-2.82,2.56a4.48,4.48,0,0,1-.75.82,2.39,2.39,0,0,1-.22.23l0,0a.87.87,0,0,1-.21.17l-.1.12c-.35.42-.72.83-1,1.28A2.24,2.24,0,0,0,39,69.52a2.39,2.39,0,0,0,2.47.11,7.41,7.41,0,0,0,1.63-1.54,23.46,23.46,0,0,1,5.52-4.86A2.94,2.94,0,0,0,49.15,59.29Z" transform="translate(-21.58 6.08)"/><path class="cls-5" d="M56.78,54.75a1.68,1.68,0,0,0-.85-.79,4.22,4.22,0,0,0-4.87,1c-.08.16-.18.31-.27.46a6.59,6.59,0,0,0-.22,1.4c.06.34-.08.73.15,1a2.89,2.89,0,0,0,2.69,1.39,5.92,5.92,0,0,0,2.34-.68,1.7,1.7,0,0,0,.85-.78A3.08,3.08,0,0,0,56.78,54.75Z" transform="translate(-21.58 6.08)"/></svg>